/* XPM */
static char *coin1687298503[] = {
/* columns rows colors chars-per-pixel */
"50 50 139 2 ",
"   c #F3AC02",
".  c #F2AC09",
"X  c #F5B302",
"o  c #F6BB01",
"O  c #F8BD02",
"+  c #F5B40B",
"@  c #F6BB0C",
"#  c #F9BF0B",
"$  c #F6B610",
"%  c #F5BC12",
"&  c #F1BE1F",
"*  c #F0BD23",
"=  c #F7C202",
"-  c #F9C401",
";  c #F7CE05",
":  c #FACC01",
">  c #F6C10B",
",  c #F8C50B",
"<  c #F5C90F",
"1  c #FACD0C",
"2  c #FDD301",
"3  c #FEDD01",
"4  c #FAD20B",
"5  c #FCDC0A",
"6  c #F7C312",
"7  c #F9C615",
"8  c #F7CE14",
"9  c #F9CC17",
"0  c #F7C61A",
"q  c #F1CE18",
"w  c #F9CC1A",
"e  c #FAD313",
"r  c #FDDB17",
"t  c #F2D519",
"y  c #FAD31C",
"u  c #FBDA1D",
"i  c #FFE006",
"p  c #FEED04",
"a  c #FEEC0C",
"s  c #FEF00D",
"d  c #FDE414",
"f  c #FDEE16",
"g  c #FEE41A",
"h  c #FDED1C",
"j  c #FEF013",
"k  c #DED73D",
"l  c #EBC925",
"z  c #EAC42B",
"x  c #EBCB2B",
"c  c #FBDB25",
"v  c #FBDC29",
"b  c #E4D530",
"n  c #FDE323",
"m  c #FDEC23",
"M  c #FDE52E",
"N  c #FDEB2B",
"B  c #FCF025",
"V  c #FCF02B",
"C  c #FDE632",
"Z  c #F7EF36",
"A  c #FCED35",
"S  c #FDE73C",
"D  c #F3EC3E",
"F  c #FDE93F",
"G  c #FDF032",
"H  c #F7F03C",
"J  c #FDF13C",
"K  c #BFD577",
"L  c #BBD57A",
"P  c #DBC646",
"I  c #D9C648",
"U  c #CFD458",
"Y  c #D4D750",
"T  c #D0D359",
"R  c #DFE85A",
"E  c #EFEF47",
"W  c #E6E94E",
"Q  c #FCEA42",
"!  c #FEED4D",
"~  c #FEF344",
"^  c #FDF44B",
"/  c #FEED55",
"(  c #FEF454",
")  c #F2F15D",
"_  c #FDF55B",
"`  c #CACF65",
"'  c #C5CF6B",
"]  c #C7D567",
"[  c #C5D865",
"{  c #C4D36C",
"}  c #FADC6D",
"|  c #FBDF77",
" . c #D6E86C",
".. c #C9E77C",
"X. c #CCE97D",
"o. c #D4EB73",
"O. c #F0F060",
"+. c #FFF46D",
"@. c #FBE076",
"#. c #F5F572",
"$. c #FDF273",
"%. c #FEF77D",
"&. c #AFDB8D",
"*. c #B9D681",
"=. c #ACD794",
"-. c #ACDA94",
";. c #A8D998",
":. c #ABE19F",
">. c #BDE590",
",. c #B2E39D",
"<. c #9EDBA6",
"1. c #9ADDAD",
"2. c #93DCB3",
"3. c #99DEB0",
"4. c #A0DBA4",
"5. c #A1DFAB",
"6. c #ADE3A2",
"7. c #A2E0AB",
"8. c #B3E5A4",
"9. c #C6E787",
"0. c #CDE982",
"q. c #C4E68A",
"w. c #C4E88D",
"e. c #D4EC8A",
"r. c #C0E791",
"t. c #D3ED93",
"y. c #D5EE98",
"u. c #FEFA83",
"i. c #F3F788",
"p. c #F4F889",
"a. c #FEFB8D",
"s. c #FBE890",
"d. c #E6F493",
"f. c #FFFA91",
"g. c #FFFC9E",
"h. c #FEFBA5",
"j. c #FEFDAF",
"k. c #FFFDB2",
"l. c #FFFEBC",
/* pixels */
"2.2.2.2.2.2.2.2.2.2.2.2.2.2.2.2.2.2.2.2.2.2.2.2.2.2.2.2.2.2.2.2.2.2.2.2.2.2.2.2.2.2.2.2.2.2.2.2.2.2.",
"2.2.2.2.2.2.2.2.2.2.2.2.2.2.2.2.2.2.2.2.2.2.2.2.2.2.2.2.2.2.2.2.2.2.2.2.2.2.2.2.2.2.2.2.2.2.2.2.2.2.",
"2.2.2.2.2.2.2.2.2.2.2.2.2.2.2.2.2.2.2.2.2.2.2.2.2.2.2.2.2.2.2.2.2.2.2.2.2.2.2.2.2.2.2.2.2.2.2.2.2.2.",
"2.2.2.2.2.2.2.2.2.2.2.2.2.2.2.2.2.2.2.2.2.2.2.2.2.2.2.2.2.2.2.2.2.2.2.2.2.2.2.2.2.2.2.2.2.2.2.2.2.2.",
"2.2.2.2.2.2.2.2.2.2.2.2.2.2.2.2.2.2.2.2.2.2.2.2.2.2.2.2.2.2.2.2.2.2.2.2.2.2.2.2.2.2.2.2.2.2.2.2.2.2.",
"2.2.2.2.2.2.2.2.2.2.2.2.2.2.2.2.2.2.2.2.2.2.2.3.1.3.3.2.2.2.2.2.2.2.2.2.2.2.2.2.2.2.2.2.2.2.2.2.2.2.",
"2.2.2.2.2.2.2.2.2.2.2.2.2.2.2.2.2.2.2.8.y.d.p.u.u.u.u.p.d.y.8.2.2.2.2.2.2.2.2.2.2.2.2.2.2.2.2.2.2.2.",
"2.2.2.2.2.2.2.2.2.2.2.2.2.2.2.2.7.t.#._ ( ( ( _ _ _ ( _ ^ _ _ #.t.5.2.2.2.2.2.2.2.2.2.2.2.2.2.2.2.2.",
"2.2.2.2.2.2.2.2.2.2.2.2.2.2.1.e._ ~ J J ~ ^ ^ ( ( ( ^ ^ ^ ~ J J Z ) e.3.2.2.2.2.2.2.2.2.2.2.2.2.2.2.",
"2.2.2.2.2.2.2.2.2.2.2.2.2.:.) V N V G J ~ ~ ~ ^ ^ ^ ^ ^ ~ J J G V B N O.6.2.2.2.2.2.2.2.2.2.2.2.2.2.",
"2.2.2.2.2.2.2.2.2.2.2.2.>.Z f h h V G G G c w 6 1 6 7 w c Z V V B B f f J >.2.2.2.2.2.2.2.2.2.2.2.2.",
"2.2.2.2.2.2.2.2.2.2.2.0.h a f f h B u 6     X o = = o X     6 g h h f f p m 9.2.2.2.2.2.2.2.2.2.2.2.",
"2.2.2.2.2.2.2.2.2.2.9.f p p a f d ,   X : 3 i i i 3 3 i 3 : X   , d a a p p h >.2.2.2.2.2.2.2.2.2.2.",
"2.2.2.2.2.2.2.2.2.:.B p p p p 5 X X 2 3 i 3 i 3 i i i i 3 3 3 2 X X 5 p p p p B 6.2.2.2.2.2.2.2.2.2.",
"2.2.2.2.2.2.2.2.1.H p p p p 3   o 3 i i i i 3 i 3 i i 3 i 3 i i 3 o X 2 p p p p E 2.2.2.2.2.2.2.2.2.",
"2.2.2.2.2.2.2.2.o.j s s a 5   = i i 3 i 3 i i i 3 i i 3 i i i 3 3 i = X 5 s s s s X.2.2.2.2.2.2.2.2.",
"2.2.2.2.2.2.2.5.V s s s a X o 3 3 3 i i g g g g g g g g g g i i 3 3 3 X o a s s j V 7.2.2.2.2.2.2.2.",
"2.2.2.2.2.2.2.o.j j j f ,   2 3 3 i 3 ; h.j.k.k.l.l.l.l.l.l.C i 3 3 3 2   1 j j j j ..2.2.2.2.2.2.2.",
"2.2.2.2.2.2.3.Z f j j d   : 2 3 3 3 3 ; h.k.k.l.l.l.l.s.@.@.g i 3 3 3 2 -   d f f j H 2.2.2.2.2.2.2.",
"2.2.2.2.2.2.,.h h h g 1 X : 2 2 2 3 3 2 4 4 4 w } k.k.$.i 3 i 3 3 3 2 2 2   1 h h h h :.2.2.2.2.2.2.",
"2.2.2.2.2.2. .m m m n X O : 2 2 3 2 3 2 ^ / ( / / g.h.g.( / g 3 3 2 2 2 : o o h m m m ..2.2.2.2.2.2.",
"2.2.2.2.2.2.W m m m r . : : 2 2 2 3 3 - %.u.u.a.a.a.f.f.a.f.M 3 3 2 2 2 : : X u m m m R 2.2.2.2.2.2.",
"2.2.2.2.2.2.D N N N 4 X : : : 2 2 2 3 : 9 9 w w 0 $.u.%.y y 2 3 2 2 2 2 2 :   e N N N F 2.2.2.2.2.2.",
"2.2.2.2.2.3.C M M C 1 X : : : : 2 : 2 2 2 3 3 5 Q +.+.Q 3 2 2 2 : 2 : : : -   e C C M M 1.2.2.2.2.2.",
"2.2.2.2.2.1.n C M M < X = : : : : 2 2 - Q Q ! / / _ ! 5 2 2 2 2 : 2 : : : -   1 M M M n 1.2.2.2.2.2.",
"2.2.2.2.2.1.2 2 5 3 ; X = : : - : : : O M C C S Q v 4 2 2 2 : : : : : - - -   : 5 5 3 3 <.2.2.2.2.2.",
"2.2.2.2.2.2.5 2 2 3 ; X = - - : : : : - 0 M M v - 2 : : 2 : 2 : : : : - - -   : 2 2 2 2 3.2.2.2.2.2.",
"2.2.2.2.2.2.t 3 2 2 : . O = - - - - : : X 7 c c v : : 2 : : : : : - - - - - . : 2 2 2 t 2.2.2.2.2.2.",
"2.2.2.2.2.2.b ; 2 2 2 X O O - - - - : - : X w c c y : : : : : - - - - O = - X 2 ; ; 3 k 2.2.2.2.2.2.",
"2.2.2.2.2.2.Y 2 : : : o @ O O O - - - - - -   9 y u y - - - - - - - - O O + = : ; 2 ; K 2.2.2.2.2.2.",
"2.2.2.2.2.2.&.; : : : : . O O O O O - - - - - . 4 e u 1 - - - - = = o o O . : : : ; ; &.2.2.2.2.2.2.",
"2.2.2.2.2.2.2.q : : : : X @ O O O - O O O - - O . 4 1 r , O - O O O o o @ O : = ; ; q 2.2.2.2.2.2.2.",
"2.2.2.2.2.2.2.U = : : = 2   @ o O O O O O O O O O . : ; 9 O O O o O O #   : ; = : = [ 2.2.2.2.2.2.2.",
"2.2.2.2.2.2.2.<.< = - - = : . @ X O X O o O O O O X X X O O o X O X @ . : = = = = < <.2.2.2.2.2.2.2.",
"2.2.2.2.2.2.2.2.U = o = = - = + @ X X o X O X O O O O o O X o o O @ . - ; = = = = [ 2.2.2.2.2.2.2.2.",
"2.2.2.2.2.2.2.2.1.l = O O O : = + % X X X X O X X X O X X X X X % . = : o = o = x 1.2.2.2.2.2.2.2.2.",
"2.2.2.2.2.2.2.2.2.-.> o o o o = 2 . % % X X X X X X X X   X % $   2 = o o o o > ;.2.2.2.2.2.2.2.2.2.",
"2.2.2.2.2.2.2.2.2.2.K o o o o o o 2 O . $ % % @ $ @ % % % $ . - ; O o o o o @ *.2.2.2.2.2.2.2.2.2.2.",
"2.2.2.2.2.2.2.2.2.2.2.K @ o X X X X O 2 : O . . . . .   = ; ; O X X o X X @ K 2.2.2.2.2.2.2.2.2.2.2.",
"2.2.2.2.2.2.2.2.2.2.2.2.L @ X X X X X X X - : : : 2 : : - X X X X X X X @ *.2.2.2.2.2.2.2.2.2.2.2.2.",
"2.2.2.2.2.2.2.2.2.2.2.2.2.-.z X X   X X X   X X X X X   X X X   X   X z ;.2.2.2.2.2.2.2.2.2.2.2.2.2.",
"2.2.2.2.2.2.2.2.2.2.2.2.2.2.1.` $                               X & ' 3.2.2.2.2.2.2.2.2.2.2.2.2.2.2.",
"2.2.2.2.2.2.2.2.2.2.2.2.2.2.2.2.4.' * .                     . l ' <.2.2.2.2.2.2.2.2.2.2.2.2.2.2.2.2.",
"2.2.2.2.2.2.2.2.2.2.2.2.2.2.2.2.2.2.3.=.' P * $ $ + + * I ' =.2.2.2.2.2.2.2.2.2.2.2.2.2.2.2.2.2.2.2.",
"2.2.2.2.2.2.2.2.2.2.2.2.2.2.2.2.2.2.2.2.2.2.2.1.5.<.3.2.2.2.2.2.2.2.2.2.2.2.2.2.2.2.2.2.2.2.2.2.2.2.",
"2.2.2.2.2.2.2.2.2.2.2.2.2.2.2.2.2.2.2.2.2.2.2.2.3.2.2.2.2.2.2.2.2.2.2.2.2.2.2.2.2.2.2.2.2.2.2.2.2.2.",
"2.2.2.2.2.2.2.2.2.2.2.2.2.2.2.2.2.2.2.2.2.2.2.2.2.2.2.2.2.2.2.2.2.2.2.2.2.2.2.2.2.2.2.2.2.2.2.2.2.2.",
"2.2.2.2.2.2.2.2.2.2.2.2.2.2.2.2.2.2.2.2.2.2.2.2.2.2.2.2.2.2.2.2.2.2.2.2.2.2.2.2.2.2.2.2.2.2.2.2.2.2.",
"2.2.2.2.2.2.2.2.2.2.2.2.2.2.2.2.2.2.2.2.2.2.2.2.2.2.2.2.2.2.2.2.2.2.2.2.2.2.2.2.2.2.2.2.2.2.2.2.2.2.",
"2.2.2.2.2.2.2.2.2.2.2.2.2.2.2.2.2.2.2.2.2.2.2.2.2.2.2.2.2.2.2.2.2.2.2.2.2.2.2.2.2.2.2.2.2.2.2.2.2.2."
};
