/* XPM */
static char *door1687298504[] = {
/* columns rows colors chars-per-pixel */
"50 50 62 1 ",
"  c black",
". c #010202",
"X c #020202",
"o c #040605",
"O c #050806",
"+ c #090D0B",
"@ c #090E0B",
"# c #0D1410",
"$ c #0F1612",
"% c #121A16",
"& c #131C17",
"* c #131D17",
"= c #131D18",
"- c #151F19",
"; c #1B2820",
": c #1C2A23",
"> c #1F2E26",
", c #213028",
"< c #23352B",
"1 c #24352B",
"2 c #24362C",
"3 c #25382D",
"4 c #283B30",
"5 c #2C4236",
"6 c #2F4639",
"7 c #31493C",
"8 c #3B5848",
"9 c #3D5B4A",
"0 c #3D5C4B",
"q c #3E5C4B",
"w c #426351",
"e c #466855",
"r c #486C58",
"t c #4B705B",
"y c #4E755F",
"u c #517963",
"i c #547D66",
"p c #557F67",
"a c #558068",
"s c #568169",
"d c #58846B",
"f c #59856C",
"g c #5A876E",
"h c #609075",
"j c #619176",
"k c #679A7E",
"l c #689B7F",
"z c #699C80",
"x c #6BA083",
"c c #6DA384",
"v c #70A889",
"b c #72AB8B",
"n c #74AD8D",
"m c #76B08F",
"M c #7BB795",
"N c #7BB996",
"B c #7DBB98",
"V c #7EBD9A",
"C c #86C8A3",
"Z c #89CDA7",
"A c #90D7AF",
"S c #93DCB3",
/* pixels */
"SSSSSSSSSSSSSSSSSSSSSSSSSSSSSSSSSSSSSSSSSSSSSSSSSS",
"SSSSSSSSSSSSSSSSSSSSSSSSSSSSSSSSSSSSSSSSSSSSSSSSSS",
"SSSSSSSSSSSSSSSSSSSSSSSSSSSSSSSSSSSSSSSSSSSSSSSSSS",
"SSSSSSSSSSSSSSSSSSSSSSSSSSSSSSSSSSSSSSSSSSSSSSSSSS",
"SSSSSSSSSSSSSSSSSSSSSSSSSSSSSSSSSSSSSSSSSSSSSSSSSS",
"SSSSS                                       5SSSSS",
"SSSSS                                       5SSSSS",
"SSSSS  #555555#       25555%       ,555555  5SSSSS",
"SSSSS  5SSxw3+        mSSSS8        -7pMSS  5SSSSS",
"SSSSS  5z             mSSSS8             S  5SSSSS",
"SSSSS  5k             mSSSS8             S  5SSSSS",
"SSSSS  5k             mSSSS8             S  5SSSSS",
"SSSSS  5k             mSSSS8             S  5SSSSS",
"SSSSS                 mSSSS8                5SSSSS",
"SSSSS                 mSSSS8                5SSSSS",
"SSSSS                 mSSSS8                5SSSSS",
"SSSSS  #>             mSSSS8             5  5SSSSS",
"SSSSS  5k             mSSSS8             S  5SSSSS",
"SSSSS  5k             mSSSS8             S  5SSSSS",
"SSSSS  5k             mSSSS8             S  5SSSSS",
"SSSSS  5k             mSSSS8             S  5SSSSS",
"SSSSS  5k             nSSSS8             S  5SSSSS",
"SSSSS  5k             MSSSS8             S  5SSSSS",
"SSSSS  5k         4u  nSSSS8 =g@         S  5SSSSS",
"SSSSS  5k         sS= mSSSS8 tS:         S  5SSSSS",
"SSSSS  5k         +,  mSSSS8 O1          S  5SSSSS",
"SSSSS  5k             mSSSS8             S  5SSSSS",
"SSSSS  5k             mSSSS8             S  5SSSSS",
"SSSSS  5k             mSSSS8             S  5SSSSS",
"SSSSS  5l             mSSSS8             S  5SSSSS",
"SSSSS  >r             mSSSS8             k  5SSSSS",
"SSSSS                 mSSSS8                5SSSSS",
"SSSSS                 mSSSS8                5SSSSS",
"SSSSS                 mSSSS8                5SSSSS",
"SSSSS  ;q             mSSSS8             d  5SSSSS",
"SSSSS  5k             mSSSS8             S  5SSSSS",
"SSSSS  5k             mSSSS8             S  5SSSSS",
"SSSSS  5k             mSSSS8             S  5SSSSS",
"SSSSS  5k             mSSSS8             S  5SSSSS",
"SSSSS  5k             mSSSS8             S  5SSSSS",
"SSSSS  5k             mSSSS8             S  5SSSSS",
"SSSSSmmVv             mSSSS8            +SmmVSSSSS",
"SSSSSSSSSSBj8=        mSSSS8        2ycZSSSSSSSSSS",
"SSSSSSSSSSSSSSAnf6o   mSSSS8   *qjNSSSSSSSSSSSSSSS",
"SSSSSSSSSSSSSSSSSSSMleVSSSSssbCSSSSSSSSSSSSSSSSSSS",
"SSSSSSSSSSSSSSSSSSSSSSSSSSSSSSSSSSSSSSSSSSSSSSSSSS",
"SSSSSSSSSSSSSSSSSSSSSSSSSSSSSSSSSSSSSSSSSSSSSSSSSS",
"SSSSSSSSSSSSSSSSSSSSSSSSSSSSSSSSSSSSSSSSSSSSSSSSSS",
"SSSSSSSSSSSSSSSSSSSSSSSSSSSSSSSSSSSSSSSSSSSSSSSSSS",
"SSSSSSSSSSSSSSSSSSSSSSSSSSSSSSSSSSSSSSSSSSSSSSSSSS"
};
