/* XPM */
static char *player1687298504[] = {
/* columns rows colors chars-per-pixel */
"50 50 225 2 ",
"   c #010102",
".  c #0C0B0A",
"X  c #18181B",
"o  c #181714",
"O  c #0D1112",
"+  c #24211E",
"@  c #0C142C",
"#  c #1D2425",
"$  c #152A38",
"%  c #1F3532",
"&  c #242323",
"*  c #2D2C2C",
"=  c #292927",
"-  c #322E2D",
";  c #362E25",
":  c #2A312B",
">  c #38332D",
",  c #343433",
"<  c #3B3531",
"1  c #383C37",
"2  c #2B3334",
"3  c #4A3F36",
"4  c #423B35",
"5  c #533E2B",
"6  c #2E4237",
"7  c #33453C",
"8  c #36493C",
"9  c #4C433B",
"0  c #45443A",
"q  c #52463C",
"w  c #54493D",
"e  c #574B34",
"r  c #685737",
"t  c #775839",
"y  c #754F24",
"u  c #766A3B",
"i  c #06144E",
"p  c #071B55",
"a  c #103352",
"s  c #021463",
"d  c #021A76",
"f  c #04336F",
"g  c #2B3847",
"h  c #11455A",
"j  c #3A4C42",
"k  c #3A5546",
"l  c #204441",
"z  c #02587E",
"x  c #0F4764",
"c  c #0E6278",
"v  c #554A42",
"b  c #5A4D42",
"n  c #514741",
"m  c #455849",
"M  c #5E5145",
"N  c #5D5249",
"B  c #515A4A",
"V  c #5A5A59",
"C  c #485352",
"Z  c #63554A",
"A  c #66594D",
"S  c #695A4E",
"D  c #665844",
"F  c #6C5D52",
"G  c #675B52",
"H  c #715F54",
"J  c #6B5641",
"K  c #496756",
"L  c #5A735B",
"P  c #536854",
"I  c #636548",
"U  c #686552",
"Y  c #726355",
"T  c #756658",
"R  c #7C6B5C",
"E  c #766A54",
"W  c #787857",
"Q  c #6D794D",
"!  c #557965",
"~  c #7E7D79",
"^  c #757168",
"/  c #975C21",
"(  c #8D6836",
")  c #A86722",
"_  c #856847",
"`  c #887844",
"'  c #85755B",
"]  c #927250",
"[  c #AB7D51",
"{  c #816F60",
"}  c #847263",
"|  c #897667",
" . c #8A7768",
".. c #8C7A6A",
"X. c #87776A",
"o. c #917D6E",
"O. c #927768",
"+. c #947F70",
"@. c #77805D",
"#. c #5A836D",
"$. c #578169",
"%. c #5E8B72",
"&. c #5D8670",
"*. c #618F75",
"=. c #65957A",
"-. c #66987C",
";. c #7E8762",
":. c #8E8A3F",
">. c #888656",
",. c #B38958",
"<. c #AB935A",
"1. c #B4B05B",
"2. c #92846C",
"3. c #8A8976",
"4. c #9A8474",
"5. c #9E8877",
"6. c #988675",
"7. c #979674",
"8. c #96956A",
"9. c #B7976A",
"0. c #A28C7A",
"q. c #A28870",
"w. c #A9917C",
"e. c #B29875",
"r. c #B7B377",
"t. c #C69257",
"y. c #C3BE4F",
"u. c #C9A777",
"i. c #D8A164",
"p. c #E9B87A",
"a. c #F5B672",
"s. c #F7BC79",
"d. c #EFB16D",
"f. c #C9C357",
"g. c #F7C47E",
"h. c #D0CB6B",
"j. c #011C87",
"k. c #012688",
"l. c #00389A",
"z. c #024F8B",
"x. c #025882",
"c. c #024B9C",
"v. c #004CA7",
"b. c #0157AC",
"n. c #005EB1",
"m. c #0264B4",
"M. c #016DBA",
"N. c #026EB6",
"B. c #027CC4",
"V. c #0B839C",
"C. c #0491B5",
"Z. c #6A9D81",
"A. c #7F8983",
"S. c #6DA284",
"D. c #6FA688",
"F. c #73AC8C",
"G. c #72A386",
"H. c #79B493",
"J. c #7CB896",
"K. c #7EBC9A",
"L. c #76B090",
"P. c #76B08F",
"I. c #0189CA",
"U. c #0299D3",
"Y. c #02A8D8",
"T. c #02B2DD",
"R. c #06A7CB",
"E. c #02B7E3",
"W. c #03AEE0",
"Q. c #8C8C87",
"!. c #A99482",
"~. c #A89C92",
"^. c #80BF9C",
"/. c #B8A797",
"(. c #B3AA93",
"). c #A6A6A5",
"_. c #BCB9B5",
"`. c #BCB6A6",
"'. c #D4BF9A",
"]. c #F6BE86",
"[. c #C7B9AF",
"{. c #82C29E",
"}. c #86C9A4",
"|. c #89CCA6",
" X c #8ACFA8",
".X c #84C6A1",
"XX c #8DD3AC",
"oX c #90D7AF",
"OX c #90D8AF",
"+X c #93DCB3",
"@X c #DFC28C",
"#X c #D3D08C",
"$X c #FCC983",
"%X c #FAC385",
"&X c #FDD48B",
"*X c #F8CB95",
"=X c #FFDA94",
"-X c #FFDC9B",
";X c #F9D494",
":X c #E8C68C",
">X c #C5C0BB",
",X c #D4D3B2",
"<X c #D9CFA7",
"1X c #E6CAA6",
"2X c #EAD3A9",
"3X c #FDDCA7",
"4X c #FCDAB6",
"5X c #FEE3AD",
"6X c #FEE0A6",
"7X c #E9E7B8",
"8X c #FEE5B5",
"9X c #FFE6BB",
"0X c #FEE8BE",
"qX c #E5E3AD",
"wX c #DAD9D7",
"eX c #CBC9C6",
"rX c #E1DFDD",
"tX c #ECECC4",
"yX c #FEE9C2",
"uX c #E5E2DF",
"iX c #EBECEC",
"pX c #E4E4E4",
"aX c #F4F4F4",
"sX c #FFFFFF",
"dX c #F1F0EE",
/* pixels */
"+X+X+X+X+X+X+X+X+X+X+X+X+X+X+X+X+X+X+X+X+X+X+X+X+X+X+X+X+X+X+X+X+X+X+X+X+X+X+X+X+X+X+X+X+X+X+X+X+X+X",
"+X+X+X+X+X+X+X+X+X+X+X+X+X+X+X+X+X+X+X+X+X+X+X+XF.*.*.L.+X+X+X+X+X+X+X+X+X+X+X+X+X+X+X+X+X+X+X+X+X+X",
"+X+X+X+X+X+X+X+X+X+X+X+X+X+X+X+X+X+X+X+X+XoX! , N T T N , K |.+X+X+X+X+X+X+X+X+X+X+X+X+X+X+X+X+X+X+X",
"+X+X+X+X+X+X+X+X+X+X+X+X+X+X+X+X+X+X+X+X|.2 G 4.5.0.0.!.!.X., F.+X+X+X+X+X+X+X+X+X+X+X+X+X+X+X+X+X+X",
"+X+X+X+X+X+X+X+X+X+X+X+X+X+X+XOXXX=.K K 2 T +.+.6.q.0.w.0.!.0., K.+X+X+X+X+X+X+X+X+X+X+X+X+X+X+X+X+X",
"+X+X+X+X+X+X+X+X+X+X+X+X+X+X XK # X X X G ....o.+.+.4.0.0.0.w...j oX+X+X+X+X+X+X+X+X+X+X+X+X+X+X+X+X",
"+X+X+X+X+X+X+X+X+X+X+X+X+XK.: X X X X - R } X.X.+.`.eX>X!.q.0.0.N &.+X+X+X+X+X+X+X+X+X+X+X+X+X+X+X+X",
"+X+X+X+X+X+X+X+X+X+X+X+X X: X X X X X b R R R ..pXaXaXaXdX~.4.0.5., {.+X+X+X+X+X+X+X+X+X+X+X+X+X+X+X",
"+X+X+X+X+X+X+X+X+X+X+X+XC X X X X X + H Y T R [.aXwXaXpXwXrX+.+.4.X.7 +X+X+X+X+X+X+X+X+X+X+X+X+X+X+X",
"+X+X+X+X+X+X+X+X+X+X+X{.X X X X X + 4 F H H Y eXQ., eXC g rXO.+.+.4.n #.+X+X+X+X+XJ.L.+X+X+X+X+X+X+X",
"+X+X+X+X+X+X+X+X+X+X+X! X X X X = 4 3 Z S S F ~.>X^ rX).Q.[.X...o.o.+.4 k ! ! C , 4 = ^.+X+X+X+X+X+X",
"+X+X+X+X+X+X+X+X+X+X+Xj X X X < 5 3 3 M M Z S S >XiXpXpXwXX.{ |  ...o.} b q v Z H Y < ^.+X+X+X+X+X+X",
"+X+X+X+X+X+XZ.#.&.&.! * X , b b q 3 3 b b b Z Z Q.wX_.[.).R { { { |  ...Z Z Z S S A * oX+X+X+X+X+X+X",
"+X+X+X+X+X+X& 4 < - < v F F S M b 3 3 q w b b Z Z A G F H T T T { { } } b b b b Z - Z.+X+X+X+X+X+X+X",
"+X+X+X+X+X+X2 U } .. .{ R H F Z M q q 3 9 q v v b v b b Z F H H T R R { w q w v - ! +X+X+X+X+X+X+X+X",
"+X+X+X+X+X+X%.9 R +...} R T H S Z b 3 4 * & # $ a a x x h a * - 3 S T R 3 3 4 & =.+X+X+X+X+X+X+X+X+X",
"+X+X+X+X+X+XoXj N O.o. .{ R H F 3 ; @ p f v.n.m.M.B.U.U.Y.W.T.R.V.h * b < = 8 ^.+X+X+X+X+X+X+X+X+X+X",
"+X+X+X+X+X+X+X Xj v o.O.} { n # p d k.l.l.v.b.n.B.B.I.U.Y.Y.T.T.E.E.Y.c X =.+X+X+X+X+X+X+X+X+X+X+X+X",
"+X+X+X+X+X+X+X+XoX=.8 - - $ p s s d k.k.l.v.b.b.m.B.I.U.Y.Y.T.T.E.E.E.E.l +X+X+X+X+X+X+X+X+X+X+X+X+X",
"+X+X+X+X+X+X+X+X+X+X+XXX$ m.s s s d d k.i f v.b.n.m.M.B.B.I.I.U.U.Y.E.C.k +X+X+X+X+X+X+X+X+X+X+X+X+X",
"+X+X+X+X+X+X+X+X+X+X+X+X% m.d k.j.j.j.= } ..H g f z.z.z.z z z z x.z K T *.+X+X+X+X+X+X+X+X+X+X+X+X+X",
"+X+X+X+X+X+X+X+X+X+X+X+X6 N.d d s i @ H H T { 6.2.Z o b q.w.w.O.> ^ R T G.+X+X+X+X+X+X+X+X+X+X+X+X+X",
"+X+X+X+X+X+X+X+X+X+X+X+XK O e t [ ,.] ; 9 G H H T | 0.} b <X4.S R Y n B  X+X+X+X+X+X+X+X+X+X+X+X+X+X",
"+X+X+X+X+X+X+X+X+X+X+X+XOXK ,.d.d.a.a.].~ A.V < > Z Y R n 1XS F n n V K.+X+X+X+X+X+X+X+X+X+X+X+X+X+X",
"+X+X+X+X+X+X+X+X+X+X+X+X-.m e [ a.a.s.&X~.iXiXiXeXo.. 4 Y 8XZ ).iX* A.+X+X+X+X+X+X+X+X+X+X+X+X+X+X+X",
"+X+X+X+X+X+X+X+X+X+X+X+XQ :X].u.i.a.g.&Xe.iXsXsXsXg + iX(.8Xe.sXsXiX! +X+X+X+X+X+X+X+X+X+X+X+X+X+X+X",
"+X+X+X+X+X+X+X+X+X+X+X+XQ ;X9.u.p.a.$X&X$Xu./._.eX).~.[.2X2X1X[.(.X.$.+X+X+X+X+X+X+X+X+X+X+X+X+X+X+X",
"+X+X+X+X+X+X+X+X+X+X+X+X! :X=X:Xu.a.g.&X&X%X%X%X].*X*X5X4X'.4X3X4X5.G.+X+X+X+X+X+X+X+X+X+X+X+X+X+X+X",
"+X+X+X+X+X+X+X+X+X+X+X+XOXI ;X;X; t.g.&X&X=X&X;X*X;X5X5X8X8X0X0XyX^ {.+X+X+X+X+X+X+X+X+X+X+X+X+X+X+X",
"+X+X+X+X+X+X+X+X+X+X+X+X+X}.L I {.0 i.g.&X=X=X-X@X@X5X5X8X8X9XyXyX0 XX+X+X+X+X+X+X+X+X+X+X+X+X+X+X+X",
"+X+X+X+X+X+X+X+X+X+X+X+X+X+X+X+X+XXXm ,.g.&X=X-X-X6X6X5X5X8X9X0X3.#.+X+X+X+X+X+X+X+X+X+X+X+X+X+X+X+X",
"+X+X+X+X+X+X+X+X+X+X+X+X+X+X+X+X+X+XOX*.w ,.&X=X-X6X6X5X5X8X1XA $.+X+X+X+X+X+X+X+X+X+X+X+X+X+X+X+X+X",
"+X+X+X+X+X+X+X+X+X+X+X+X+X+X+X+X+X+X+X+XOXS.6 e r W ' ' M B $.^.+X+X+X+X+X+X+X+X+X+X+X+X+X+X+X+X+X+X",
"+X+X+X+X+X+X+X+X+X+X+X+X+X+X+X+X+X+X+X+XJ.Q :.>.f.#X,X7.y r OX+X+X+X+X+X+X+X+X+X+X+X+X+X+X+X+X+X+X+X",
"+X+X+X+X+X+X+X+X+X+X+X+X+X+X+X+X+X+X+XXX@.f.1.:.#X7X3.n t e P.+X+X+X+X+X+X+X+X+X+X+X+X+X+X+X+X+X+X+X",
"+X+X+X+X+X+X+X+X+X+X+X+X+X+X+X+X+X+X+XL #Xf.u f.qX_ A : `.7.L +X+X+X+X+X+X+X+X+X+X+X+X+X+X+X+X+X+X+X",
"+X+X+X+X+X+X+X+X+X+X+X+X+X+X+X+X+X+XJ.8.h.1.8.<./ / 8.<XtX,X>.F.+X+X+X+X+X+X+X+X+X+X+X+X+X+X+X+X+X+X",
"+X+X+X+X+X+X+X+X+X+X+X+X+X+X+X+X+X+XK #Xf.u u ) y (.7X7XtXtX8.@.-.L XX+X+X+X+X+X+X+X+X+X+X+X+X+X+X+X",
"+X+X+X+X+X+X+X+X+X+X+X+X+X+X+X+X+X+X;.#Xf.r ) ( #XqXqX7X7XtX>.r.r s.W XX+X+X+X+X+X+X+X+X+X+X+X+X+X+X",
"+X+X+X+X+X+X+X+X+X+X+X+X+X+X+X+X+XI E ( ` u e >.7.7.7.3.3.7.I 9._ ,._ F.+X+X+X+X+X+X+X+X+X+X+X+X+X+X",
"+X+X+X+X+X+X+X+X+X+X+X+X+X+X+X+X+Xt $X$X$Xg.          & 6 . o E [ <.8 +X+X+X+X+X+X+X+X+X+X+X+X+X+X+X",
"+X+X+X+X+X+X+X+X+X+X+X+X+X+X+X+X+Xe g.$Xd.d.. o o o o * , o 8 I ,.: XX+X+X+X+X+X+X+X+X+X+X+X+X+X+X+X",
"+X+X+X+X+X+X+X+X+X+X+X+X+X+X+X+X+X=.t ] r ; Z.4 Y Z A 4 ; J.+XOXH..X+X+X+X+X+X+X+X+X+X+X+X+X+X+X+X+X",
"+X+X+X+X+X+X+X+X+X+X+X+X+X+X+X+X+X+X{.P.H.XXoXC E 0 L.v U D.+X+X+X+X+X+X+X+X+X+X+X+X+X+X+X+X+X+X+X+X",
"+X+X+X+X+X+X+X+X+X+X+X+X+X+X+X+X+X+X+X+X+X+X-.O o o k o o 8 +X+X+X+X+X+X+X+X+X+X+X+X+X+X+X+X+X+X+X+X",
"+X+X+X+X+X+X+X+X+X+X+X+X+X+X+X+X+X+X+X+X+X+XK 9 1 +   o - o 8 P.+X+X+X+X+X+X+X+X+X+X+X+X+X+X+X+X+X+X",
"+X+X+X+X+X+X+X+X+X+X+XoX X}.{.H.F.D.S.-.-.-.B Y U o     A     # -.-.S.S.D.P.J.^.}.XXOX+X+X+X+X+X+X+X",
"+X+X+X+X+X+X+X+X+X+XoX|.^.F.Z.=.*.*.*.%.%.%.! K m j 6 8 k 7 6 K %.%.%.%.%.%.=.S.P.^. X+X+X+X+X+X+X+X",
"+X+X+X+X+X+X+X+X+X+X+X+X+X+XoXoXXX X|.}..X{.^.^.^.K.K.K.K.^.^.^.{..X}.|. XXXOX+XOX+X+X+X+X+X+X+X+X+X",
"+X+X+X+X+X+X+X+X+X+X+X+X+X+X+X+X+X+X+X+X+X+X+X+X+X+X+X+X+X+X+X+X+X+X+X+X+X+X+X+X+X+X+X+X+X+X+X+X+X+X"
};
