/* XPM */
static char *wall1687298504[] = {
/* columns rows colors chars-per-pixel */
"50 50 80 1 ",
"  c #320E0E",
". c #360F11",
"X c #3B0F12",
"o c #2F1212",
"O c #331213",
"+ c #3C1113",
"@ c #410F11",
"# c #451113",
"$ c #4B1416",
"% c #4B1619",
"& c #551617",
"* c #5A1516",
"= c #551519",
"- c #5A1619",
"; c #56181B",
": c #5C181B",
"> c #651516",
", c #651719",
"< c #6C171B",
"1 c #66181A",
"2 c #6C191C",
"3 c #72171C",
"4 c #75191C",
"5 c #7B1A1C",
"6 c #741D22",
"7 c #791B20",
"8 c #732022",
"9 c #7D2125",
"0 c #851A1C",
"q c #8D1A1C",
"w c #901A1C",
"e c #831C20",
"r c #8D1C21",
"t c #941D22",
"y c #9B1D22",
"u c #A41F22",
"i c #AB1F24",
"p c #B21F25",
"a c #BE1F25",
"s c #872426",
"d c #912226",
"f c #9D2125",
"g c #9F252A",
"h c #99282C",
"j c #A12227",
"k c #AC2025",
"l c #A22429",
"z c #AD252A",
"x c #A5292E",
"c c #B42026",
"v c #BC2127",
"b c #B2252A",
"n c #BF2229",
"m c #B12A2F",
"M c #B9292E",
"N c #B62D31",
"B c #BB2D31",
"V c #BB3135",
"C c #C42027",
"Z c #CA2127",
"A c #C52329",
"S c #CB2229",
"D c #C2292F",
"F c #CF282E",
"G c #D0272D",
"H c #D1292F",
"J c #C42C30",
"K c #CB2C32",
"L c #D42D32",
"P c #C23335",
"I c #C83035",
"U c #D63035",
"Y c #D93237",
"T c #DD363A",
"R c #DE393C",
"E c #E0373B",
"W c #E23B3D",
"Q c #E53E41",
"! c #E64043",
"~ c #EA4345",
/* pixels */
"1,11,O,,,1,,,,,,,,<,,.,,,,,,,,,,,,,,,,,X,,,,,,,O,,",
"xxxxxxxxg#lxxxxxxxxxxxxxx$gxxxxxxxxx:jxxxxxxxxxxxx",
"~~~~~~~~R2P~~~~~~QQWRTYLH-URRREERRRT7BREEEEERRRRER",
"SSSSSSSSStfHLGGSSSSSSZSZZ-ASSSSSZZZZrtZZSSSSZZSZZS",
"ZZZZZZZZZC4SAZZSSSZZZAZSS-ZSSZZSZZZSy5ZZSSZZSAZSZZ",
"kikkkkiiii,uiiiiiikkiiiik%uiiiuiuiiit,iiiiiiiiiiii",
"*&&&*;&*=-O=----*&**&&&*&O-*&***=-&=-X--&**&**&--&",
"VVh5VVVVVVVVVBVVBVNNf&kmmmmmmmmmNz#zmNmmmmNmmz,fVV",
"ULzwLFLFSFSFSSSSSSSSeyFRTREETEERTY=LTREEETEERRtuLL",
"ZZitZSZZSZZZZZSSSSSZ,ZZSSZSSSZZZZS=ASSSSSSZSZZi5SZ",
"SSitSSSSSSZSSZZZZSSa-ZSZZSSSSSZZSS=SZZSSSZSSZZA-SS",
"kkt5piiiiiiiipiiiiir3ipiiiiiiiiiii%iiiiiiiiiiik$ii",
"$=$#&&&&=========$=@%==&====-=%-==o=========&$&O&&",
"8tPPPPPPPPPPPPPBy-MPPPPPPPPPPB#NPPPPPPPPIPPPz=PPPP",
"frYYYYYYYYYYYYYL7pLYYYYYYYYYYL=LYYYYYYYYYYYYM1UHLL",
"c2SZSSAZSSZSSZSp<SSSZSZZZSZZZZ-ZZZZSZSSZSZZZv,ZZSS",
"C-ZZZZZZZZZZZZS5yZZZZZZSZZZZSZ:ZSSZZZZZZZZZZn,ZZZZ",
"u$uuuuuuuuuuuuy$uuuuuuuuuuujuu&ujjuuuuuuuuujf&juuj",
"-+-$-*--**:*-*$$*--$-*---****=#******$******&+**$&",
"TYL,LYYTTYYTYYYYYTLebTYTTRRREQRRRWWEM3UWWRRWREERsk",
"FSG1SFSGSGGGGSGGGGSeaSSGSFGGLYTTEQ!Qd0UUHLHHHFHFej",
"AZC1SZSSSSZZZZSSZZZepSZZSZSSSSZSSZZS5cZSSSSSSSZS5k",
"CZC1ZAAAZAZZAAASZZCebZZASAAAAAAAAAZC2ASZZZCAZAAA0j",
"rqr%wwwwqqqqwwwwwwr,0qqqwwwwwwwwwqq5*qwwqwqwqqww*5",
"@@@X@@### #@####$@#######@#####.###@+#######.###+#",
"EQEQQQWWY-LTEEEETRREEEEEWWWWWWA5YWWWWWWEWWEErkWEWE",
"HHSHGGGGF,cZSGSSSSSSGFGFSGGSFG<iFSGHGGGGHGFFk5FFFF",
"ZZSSZZZZSwtFZSZZSSZSZZSSSSZZZC,ZSSSSZZZZZSAZZ-SSZZ",
"AASASCSASv7AAAAZSAAASAAAAAASCttAAAAAAAAZAAAAA1nAAA",
"rqqqqqqrqq$qqqqqqqqtqqqqwqrqr@0rqqqqqqqqqqwwq>,qqq",
",,>>>>>X,>:,>>,>>>,,,>,.,,>>>->>>>>,1,#,>>,,,>*>,,",
"WWEQQQR;YEEEQQQ~Q~~~~~J2E~~~~Q~QQQWRRD7TRRRRTRRRRR",
"FSSGFSZ;ZSAFSFSGAFHLHH7pHLFFFFSFSFSSSa6SSSSSSSASSS",
"ZZSSZZZ;ZZSAZZZZZZZZZa:ZZZZZZZSZSZZSSa7SZSSZSZSSSS",
"AnZAAnA=CACCCAACAAACneuCCACCCAAAaAAAap7aCCCCCCCACC",
"0000000+0000000000000X00000e0000000005=0e000000e00",
"74@7777677777577--77467777777777=,57757777777774+4",
"ER*EQQQQQQQQ!QQ!m6~~~~~~~QQQQQEEdgYYYYTTYTTQRQQJ2T",
"SS*SGSGSGSSFSFAHC-LLLLFFFFSSSSSSewSSSZSSZZSZSSZeuS",
"SA*SSSSSSSZSSSSSZ1ZZZZSSZZSZSSZSrtSSZSZSSSSZZZC-ZS",
"nn&CnnnAAnannAnnn4fAnnnnnnnnnnnnewnAnnnnCaAAnny3CC",
"55X55555555455555&&5555555555555=*555555577755=255",
"999999992%6767777775477.49999999999994$97e99999999",
"UHLYLLLLrrQQQRRTTTRYTYL=U~~QQQWWWERRRP9LYLLLLLYLUL",
"SZSZZZZS6pZZZZZSZZZZZZS&SSZZZZZSSSZSZv4SSZZZZZSZZS",
"SSSZZZZS<ZZZZZSZZZZZSZS*SSSZZZZZSZZSZv4SZSSZSSZSZZ",
"Cavvaaap<aaaaaaaaaaavva*aavvaaCvaaaavc3aaaaaaaaava",
"4444533=-44444434444444+44444444444442$44444444444",
"jjjjj$jjjjjjjjujjjuj$yjjjjjjjjjjjjjjljjjf&flgfj%gf",
"QWQQW*EWWWQWWWWWWQWE4MTTTTTWEEWWWWQ~~~~~b3QEERY-YQ"
};
